<svg preserveAspectRatio="none" width="100%" height="100%" overflow="visible" style="display: block;" viewBox="0 0 22 25.6644" fill="none" xmlns="http://www.w3.org/2000/svg">
<path id="icon" d="M11 0C12.9104 9.30136e-05 14.4724 1.5601 14.4724 3.46704L14.4738 9.48401H18.4685C20.4366 9.4843 22 11.1033 22 13.0101V24.5096C21.9998 25.1451 21.4779 25.6644 20.8412 25.6644H1.15747C0.521057 25.6641 0.000200247 25.1449 0 24.5096V13.0101C0 11.1032 1.62112 9.48412 3.53149 9.48401H7.52625V3.46704C7.52625 1.56005 9.08954 0 11 0ZM2.9353 22.6029H5.08643V20.4558C5.08664 19.8657 5.57074 19.3829 6.16199 19.3829C6.75297 19.3832 7.23599 19.8659 7.23621 20.4558V22.6029H9.92444V21.53C9.92444 20.9397 10.4086 20.4558 11 20.4558C11.5913 20.4558 12.0756 20.9398 12.0756 21.53V22.6029H19.0647V16.163H2.9353V22.6029ZM4.06458 11.8701C3.47333 11.8702 2.93543 12.4065 2.9353 12.9967V14.0159H19.0647V12.9967C19.0646 12.353 18.5266 11.8703 17.9354 11.8701H4.06458ZM11 3.06152C10.4086 3.06152 9.92444 3.54544 9.92444 4.13574V9.72302H12.0756L12.0742 4.13574C12.0742 3.54546 11.5913 3.06156 11 3.06152Z" fill="currentColor"/>
</svg>
