<svg viewBox="0 0 36 36" fill="none" xmlns="http://www.w3.org/2000/svg">
  <path d="M20.8096 2.8404C21.52 2.84045 22.2198 3.04577 22.8941 3.44831C24.182 4.21764 25.0294 5.40765 25.4913 7.08259C26.1659 9.51638 25.8534 11.8249 25.4854 13.8092H30.0235C30.5902 13.8092 32.3103 13.8095 33.3634 15.085C34.0487 15.9119 34.2586 17.0242 33.9918 18.3868C33.3244 21.8234 32.4974 25.3215 31.7037 28.5894C31.444 29.6641 31.0258 30.6313 30.6182 31.566L30.4454 31.9644C29.8609 33.3235 28.6265 34.1046 27.0572 34.1046H27.0147C25.6656 34.0901 24.3224 34.0899 22.9805 34.0899H20.9283C19.6116 34.0899 18.2044 34.0902 16.8048 34.0723C15.9247 34.047 15.077 33.8669 14.2764 33.5435C12.7613 32.9576 11.8524 31.5876 11.8594 29.8873L11.8624 24.8028C11.8624 21.9413 11.8671 19.1402 11.8887 16.3507C11.8962 15.3083 12.5128 14.3809 13.0899 13.8634C14.6375 12.4577 16.3111 10.7025 16.9967 8.40534C17.1804 7.78004 17.2529 7.05042 17.3321 6.28132C17.5414 4.22131 18.9409 2.8404 20.8096 2.8404Z" fill="currentColor"/>
  <path d="M6.94636 13.9102C8.97354 13.9106 10.6254 15.5535 10.6217 17.5738V30.0997C10.6213 32.1197 8.97331 33.7614 6.94636 33.7618H6.51716C4.48991 33.7618 2.84077 32.1199 2.8404 30.0997V17.5738C2.8404 15.5533 4.48969 13.9102 6.51716 13.9102H6.94636Z" fill="currentColor"/>
</svg>
