<svg viewBox="0 0 36 36" fill="none" xmlns="http://www.w3.org/2000/svg">
  <path fill-rule="evenodd" clip-rule="evenodd" d="M4.11274 6.34854C2.67049 5.53104 1.49899 6.20979 1.49899 7.86729V27.9133C1.49899 29.5685 2.66899 30.251 4.11274 29.4335L21.8667 19.3715C23.3097 18.554 23.3105 17.2273 21.8667 16.409L4.11274 6.34854ZM13.4832 9.76479C13.8975 9.76644 14.2346 9.432 14.2362 9.01779L14.2377 8.69904C14.2415 7.61679 14.7965 7.29579 15.74 7.82979L32.2475 17.1845C33.1827 17.714 33.1827 18.308 32.2475 18.8375L15.7392 28.1923C14.798 28.7255 14.2445 28.403 14.2415 27.3178V27.0125C14.2405 26.5983 13.9038 26.2634 13.4896 26.2644C13.0754 26.2655 12.7405 26.6021 12.7415 27.0163V27.3215C12.7467 29.5528 14.5377 30.5968 16.4795 29.4973L32.987 20.1425C34.9362 19.0385 34.9362 16.9835 32.987 15.8795L16.4787 6.52629C14.5385 5.42604 12.746 6.46479 12.7377 8.69379L12.7362 9.01179C12.7346 9.426 13.069 9.76314 13.4832 9.76479Z" fill="currentColor"/>
  <path d="M13.6938 6.0344C14.5286 5.55071 15.6084 5.59726 16.666 6.197L33.1733 15.55C34.2342 16.1509 34.8286 17.0511 34.8286 18.011C34.8286 18.9708 34.2342 19.871 33.1733 20.4719L16.666 29.8264C15.6075 30.4258 14.528 30.4717 13.6938 29.9861C12.8599 29.5004 12.3653 28.5389 12.3623 27.323V27.0168C12.3609 26.3935 12.8654 25.8875 13.4887 25.886C14.112 25.8844 14.6192 26.3878 14.6211 27.011V27.3171L14.6269 27.4929C14.6547 27.8666 14.7653 27.9975 14.8291 28.0349C14.9013 28.0771 15.1099 28.1129 15.5527 27.862L32.06 18.5075C32.5093 18.2531 32.5698 18.0694 32.5698 18.011C32.5697 17.9525 32.5106 17.7688 32.0615 17.5144L15.5527 8.15988C15.1089 7.90878 14.8995 7.94457 14.8261 7.98703C14.7623 8.02421 14.6505 8.15309 14.6225 8.52463L14.6167 8.70041L14.6152 9.01975C14.6125 9.64304 14.1048 10.1458 13.4814 10.1433C12.8583 10.1406 12.3558 9.63404 12.3579 9.01096L12.3593 8.69162C12.364 7.47685 12.8593 6.51807 13.6938 6.0344ZM2.07468 5.85276C2.7044 5.48718 3.50854 5.56983 4.29978 6.01828L22.0537 16.0788C22.843 16.5262 23.3282 17.168 23.3281 17.8908C23.3279 18.6135 22.8426 19.2544 22.0537 19.7014L4.29978 29.7634C3.50754 30.212 2.70269 30.2939 2.07321 29.9275C1.44415 29.5608 1.1196 28.8217 1.1196 27.9133V7.86692C1.11969 6.9574 1.44489 6.21859 2.07468 5.85276Z" fill="currentColor"/>
</svg>
