<svg viewBox="0 0 36 36" fill="none" xmlns="http://www.w3.org/2000/svg">
  <path d="M30.8248 4.7376C32.1116 4.73969 33.1549 5.818 33.1568 7.14873V8.3543H29.6588C29.015 8.3543 28.4931 8.89428 28.4927 9.55987C28.4927 10.2258 29.0148 10.7669 29.6588 10.7669H33.1568V25.2352H29.6588C29.0149 25.2352 28.4929 25.7749 28.4927 26.4407C28.4927 27.1066 29.0148 27.6463 29.6588 27.6463H33.1568V28.8519C33.1551 30.1828 32.1117 31.2624 30.8248 31.2645H5.17243C3.88522 31.2627 2.84211 30.183 2.8404 28.8519V27.6463H6.33845C6.98237 27.6463 7.50446 27.1066 7.50446 26.4407C7.50435 25.7749 6.9823 25.2352 6.33845 25.2352H2.8404V10.7669H6.33845C6.98237 10.7669 7.50446 10.2258 7.50446 9.55987C7.5041 8.8943 6.98215 8.35434 6.33845 8.3543H2.8404V7.14873C2.8423 5.8178 3.88534 4.73937 5.17243 4.7376H30.8248ZM12.1685 25.2352C11.5246 25.2352 11.0026 25.7749 11.0025 26.4407C11.0025 27.1066 11.5246 27.6463 12.1685 27.6463H15.0836C15.7274 27.6462 16.2496 27.1066 16.2496 26.4407C16.2495 25.775 15.7273 25.2353 15.0836 25.2352H12.1685ZM20.9136 25.2352C20.2698 25.2352 19.7477 25.7749 19.7476 26.4407C19.7476 27.1066 20.2697 27.6463 20.9136 27.6463H23.8287C24.4724 27.6461 24.9947 27.1065 24.9947 26.4407C24.9946 25.7751 24.4724 25.2354 23.8287 25.2352H20.9136ZM12.1685 8.3543C11.5248 8.3543 11.0029 8.89428 11.0025 9.55987C11.0025 10.2258 11.5246 10.7669 12.1685 10.7669H15.0836C15.7274 10.7668 16.2496 10.2257 16.2496 9.55987C16.2492 8.89436 15.7272 8.35444 15.0836 8.3543H12.1685ZM20.9136 8.3543C20.2699 8.3543 19.748 8.89428 19.7476 9.55987C19.7476 10.2258 20.2697 10.7669 20.9136 10.7669H23.8287C24.4724 10.7667 24.9947 10.2256 24.9947 9.55987C24.9943 8.89442 24.4722 8.35454 23.8287 8.3543H20.9136Z" fill="currentColor"/>
</svg>
