<svg viewBox="0 0 36 36" fill="none" xmlns="http://www.w3.org/2000/svg">
  <path d="M11.3677 28.4195C12.9372 28.4195 14.2093 29.6918 14.2095 31.2613C14.2095 32.831 12.9374 34.1031 11.3677 34.1031C9.79805 34.1031 8.5259 32.831 8.5259 31.2613C8.52612 29.6918 9.79818 28.4195 11.3677 28.4195Z" fill="currentColor"/>
  <path d="M27.4737 28.4195C29.0429 28.4199 30.3152 29.6921 30.3155 31.2613C30.3155 32.8307 29.043 34.1027 27.4737 34.1031C25.904 34.1031 24.6304 32.831 24.6304 31.2613C24.6306 29.6918 25.9041 28.4195 27.4737 28.4195Z" fill="currentColor"/>
  <path d="M6.02688 2.8404C6.47388 2.84051 6.85945 3.15321 6.95266 3.5904L7.65139 6.86579C7.74484 7.30274 8.13175 7.61433 8.57864 7.61433H33.9805C34.5648 7.61441 35.0095 8.13929 34.9151 8.71589L32.2827 24.7955C32.2075 25.2532 31.8107 25.5894 31.3467 25.5894H8.60793C8.13869 25.5892 7.74092 25.245 7.6719 24.7808L4.96487 6.57868C4.89559 6.11467 4.49658 5.77155 4.02737 5.77155H1.89455C1.37134 5.77155 0.9468 5.34702 0.9468 4.8238V3.78815C0.9468 3.26494 1.37134 2.8404 1.89455 2.8404H6.02688Z" fill="currentColor"/>
</svg>
