<svg viewBox="0 0 30 30" fill="none" xmlns="http://www.w3.org/2000/svg">
  <path d="M3.06545 11.0132C4.29822 11.0132 5.29811 12.0131 5.29811 13.2459V24.8523C5.29811 26.0851 4.29822 27.085 3.06545 27.085C1.83285 27.0848 0.834 26.085 0.834 24.8523V13.2459C0.834022 12.0132 1.83285 11.0134 3.06545 11.0132Z" fill="currentColor"/>
  <path d="M11.1013 2.085C12.334 2.085 13.3338 3.08385 13.334 4.31644V24.8523C13.334 26.0851 12.3341 27.085 11.1013 27.085C9.8686 27.0849 8.86989 26.0851 8.86989 24.8523V4.31644C8.8701 3.08388 9.86873 2.08505 11.1013 2.085Z" fill="currentColor"/>
  <path d="M19.1372 5.65678C20.37 5.65678 21.3698 6.65548 21.3699 7.88822V24.8523C21.3699 26.0851 20.37 27.085 19.1372 27.085C17.9045 27.0849 16.9058 26.0851 16.9058 24.8523V7.88822C16.9058 6.65551 17.9045 5.65682 19.1372 5.65678Z" fill="currentColor"/>
  <path d="M27.1731 12.7991C28.4057 12.7992 29.4043 13.798 29.4046 15.0306V24.8523C29.4046 26.085 28.4058 27.0849 27.1731 27.085C25.9403 27.085 24.9404 26.0851 24.9404 24.8523V15.0306C24.9407 13.798 25.9405 12.7991 27.1731 12.7991Z" fill="currentColor"/>
</svg>
