<svg preserveAspectRatio="none" width="100%" height="100%" overflow="visible" style="display: block;" viewBox="0 0 28.8756 28.8751" fill="none" xmlns="http://www.w3.org/2000/svg">
<path id="icon" d="M27.0213 0.0861933C27.519 -0.0988805 28.0788 0.0194423 28.4594 0.38966C28.8399 0.760174 28.9735 1.31713 28.8018 1.81971L19.8683 27.9447C19.6712 28.521 19.1179 28.8993 18.5094 28.8739C17.9008 28.8483 17.3805 28.4255 17.2325 27.8346L14.0044 14.94L1.11381 12.4451C0.509077 12.3278 0.0554595 11.8223 0.00467618 11.2084C-0.0459589 10.5943 0.318795 10.0214 0.896278 9.80653L27.0213 0.0861933ZM6.4473 10.6753L14.6731 12.2678L18.0475 8.89479C18.5845 8.35782 19.4562 8.35782 19.9932 8.89479C20.5298 9.43167 20.5297 10.3022 19.9932 10.8391L16.6484 14.1813L18.7699 22.6542L25.2596 3.67543L6.4473 10.6753Z" fill="currentColor"/>
</svg>
