<svg preserveAspectRatio="none" width="100%" height="100%" overflow="visible" style="display: block;" viewBox="0 0 26.6749 26.6749" fill="none" xmlns="http://www.w3.org/2000/svg">
<path id="icon" d="M16.2811 0.0020651C18.4367 0.218118 19.9685 2.15994 19.7482 4.15085C19.5646 5.80564 19.3337 7.09691 19.1486 7.97747C19.1051 8.18433 19.0599 8.36781 19.0225 8.52885H22.3779C24.1956 8.52885 25.3972 9.0098 26.0663 9.95377C26.7059 10.8565 26.727 12.0142 26.6348 13.0308L26.6327 13.0555L26.6286 13.0783L25.1793 21.7888C24.9964 23.0651 24.708 24.286 24.0443 25.1901C23.3383 26.1514 22.2712 26.6749 20.7467 26.6749H2.44578C1.05203 26.6745 0.000379941 25.7064 0 24.4074V10.7963C2.17774e-05 9.49697 1.05179 8.52925 2.44578 8.52885H6.07C6.15743 8.52885 6.8675 8.52767 7.64125 8.48342C8.02874 8.46125 8.42313 8.42968 8.75766 8.38223C9.07561 8.3371 9.2783 8.28252 9.37583 8.24387C9.53939 8.12081 9.78838 7.8521 10.116 7.36001C10.4538 6.85255 10.8422 6.16321 11.282 5.28458L12.3653 2.57724L12.3715 2.56279C12.973 1.15731 14.0591 0 15.8552 0H16.2501L16.2811 0.0020651ZM16.0371 2.90146C15.7849 2.90146 15.6583 2.9627 15.5885 3.01711C15.5131 3.07587 15.4361 3.18008 15.3714 3.37437L15.3238 3.51686L15.2184 3.62218C15.2514 3.58898 15.2327 3.59609 15.1605 3.73783C15.0995 3.85767 15.0206 4.02888 14.9207 4.26236C14.7207 4.7298 14.4533 5.40232 14.0896 6.313L14.0751 6.34605L14.0586 6.37909C13.4243 7.55888 12.8655 8.54254 12.3426 9.28055C11.8498 9.97596 11.3235 10.5441 10.7155 10.8108C10.3632 11.0358 9.96695 11.1932 9.48954 11.292V23.7713H20.5669C21.2079 23.7712 21.4296 23.5895 21.5634 23.3934C21.7559 23.1111 21.8526 22.6785 21.9955 21.9644C22.033 21.777 22.0733 21.5739 22.1195 21.3655L23.5584 12.7107C23.5617 12.575 23.5702 12.4382 23.5791 12.3204C23.5972 12.0807 23.608 11.9046 23.5936 11.7587C23.5836 11.657 23.5645 11.6181 23.5584 11.6079C23.4642 11.5135 23.3921 11.4809 23.3042 11.4613C23.1822 11.4342 23.031 11.4303 22.7397 11.4303H14.9951L15.973 8.25213L15.9751 8.23974C15.9787 8.22746 15.9844 8.20768 15.9916 8.18192C16.0062 8.13009 16.0284 8.05055 16.0557 7.9465C16.1104 7.73838 16.1883 7.42902 16.2769 7.02959C16.4521 6.2402 16.6704 5.10017 16.8475 3.69652C16.8423 3.54177 16.786 3.3204 16.6677 3.14927C16.5583 2.99133 16.4219 2.90146 16.217 2.90146H16.0371ZM3.13837 23.2902H7.24637V11.8702H3.13837V23.2902Z" fill="currentColor"/>
</svg>
