<svg xmlns="http://www.w3.org/2000/svg" viewBox="0 0 28 24" fill="currentColor"><path d="M14 4C8.5 4 3.7 6.2.5 9.7c-.6.7-.5 1.7.2 2.3.7.6 1.7.5 2.3-.2C5.7 9 9.7 7.2 14 7.2s8.3 1.8 11 4.6c.6.7 1.6.8 2.3.2.7-.6.8-1.6.2-2.3C24.3 6.2 19.5 4 14 4z"/><path d="M14 10c-3.8 0-7.2 1.6-9.5 4.2-.6.7-.5 1.7.2 2.3.7.6 1.7.5 2.3-.2C8.7 14.4 11.2 13.2 14 13.2s5.3 1.2 7 3.1c.6.7 1.6.8 2.3.2.7-.6.8-1.6.2-2.3C21.2 11.6 17.8 10 14 10z"/><path d="M14 16a6 6 0 0 0-4.6 2.1c-.6.7-.5 1.7.2 2.3.7.6 1.7.5 2.3-.2A2.8 2.8 0 0 1 14 19.2c.9 0 1.8.4 2.4 1.1.6.7 1.6.8 2.3.2.7-.6.8-1.6.2-2.3A6 6 0 0 0 14 16z"/><circle cx="14" cy="22.5" r="1.5"/></svg>
